<?xml version="1.0" encoding="UTF-8" standalone="no"?>
<!-- Generator: Adobe Illustrator 15.0.0, SVG Export Plug-In . SVG Version: 6.00 Build 0)  -->

<svg
   xmlns:dc="http://purl.org/dc/elements/1.1/"
   xmlns:cc="http://creativecommons.org/ns#"
   xmlns:rdf="http://www.w3.org/1999/02/22-rdf-syntax-ns#"
   xmlns:svg="http://www.w3.org/2000/svg"
   xmlns="http://www.w3.org/2000/svg"
   xmlns:sodipodi="http://sodipodi.sourceforge.net/DTD/sodipodi-0.dtd"
   xmlns:inkscape="http://www.inkscape.org/namespaces/inkscape"
   version="1.1"
   id="glasses"
   x="0px"
   y="0px"
   width="109.5px"
   height="104.5px"
   viewBox="0 0 109.5 104.5"
   enable-background="new 0 0 109.5 104.5"
   xml:space="preserve"
   sodipodi:docname="menu-about.svg"
   inkscape:version="0.92.0 r15299"><metadata
   id="metadata73"><rdf:RDF><cc:Work
       rdf:about=""><dc:format>image/svg+xml</dc:format><dc:type
         rdf:resource="http://purl.org/dc/dcmitype/StillImage" /></cc:Work></rdf:RDF></metadata><defs
   id="defs71" /><sodipodi:namedview
   pagecolor="#ffffff"
   bordercolor="#666666"
   borderopacity="1"
   objecttolerance="10"
   gridtolerance="10"
   guidetolerance="10"
   inkscape:pageopacity="0"
   inkscape:pageshadow="2"
   inkscape:window-width="1366"
   inkscape:window-height="706"
   id="namedview69"
   showgrid="false"
   inkscape:zoom="3.387198"
   inkscape:cx="82.235964"
   inkscape:cy="62.399187"
   inkscape:window-x="-8"
   inkscape:window-y="-8"
   inkscape:window-maximized="1"
   inkscape:current-layer="glasses" />
<path
   opacity="0.2"
   fill="#02263E"
   enable-background="new    "
   d="M14.055,75.736c0.209,0.74,0.493,1.531,0.849,2.369l11.118,0.826  l2.162-2.146L14.055,75.736z"
   id="path2" />
<path
   opacity="0.2"
   fill="#02263E"
   enable-background="new    "
   d="M38.39,80.458c-5.126,0.166-7.292,2.758-7.382,2.868  l-0.439,0.515c1.273-0.625,3.032-1.18,5.35-1.255c2.191-0.07,5.191-0.195,8.039-0.324c0.611-0.669,1.135-1.367,1.57-2.088  C42.954,80.287,40.342,80.395,38.39,80.458z"
   id="path4" />
<path
   opacity="0.2"
   fill="#02263E"
   enable-background="new    "
   d="M26.506,67.303c-3.148,0-6.225,0.42-9.156,1.238l27.214,2.584  c-3.513-2.16-10-3.22-12.956-3.484C29.813,67.412,28.152,67.303,26.506,67.303z"
   id="path6" />
<path
   opacity="0.2"
   fill="#02263E"
   enable-background="new    "
   d="M78.84,83.345c-0.105-0.13-2.262-2.721-7.386-2.887  c-1.965-0.063-4.599-0.173-7.187-0.286c0.482,0.798,1.078,1.57,1.774,2.305c1.087,0.043,2.106,0.082,2.992,0.109  c5.614,0.182,7.979,3.172,7.979,3.172l2.508,2.936c0.438,0.035,0.877,0.055,1.313,0.055c0.84,0,1.658-0.07,2.452-0.195L78.84,83.345  z"
   id="path8" />
<path
   opacity="0.2"
   fill="#02263E"
   enable-background="new    "
   d="M95.775,75.621L81.419,76.73l1.819,1.795l11.134-0.859  c-0.265,1.389-0.796,2.879-1.478,4.377C94.307,79.615,95.271,77.459,95.775,75.621z"
   id="path10" />
<path
   opacity="0.2"
   fill="#02263E"
   enable-background="new    "
   d="M15.254,89.693C10.359,84.383,7.848,75,7.224,73h-2.2  l-1.021-5.242c-0.705,0.164-1.407,0.288-2.096,0.477L3.248,75h2.173c0,0,2.396,10.693,7.716,16.745L15.254,89.693z"
   id="path12" />
<path
   opacity="0.2"
   fill="#02263E"
   enable-background="new    "
   d="M87.756,93.784c-1.941,0.565-4.1,0.86-6.39,0.86  c-5.505,0-11.241-1.685-15.345-4.506c-5.17-3.555-7.037-7.393-7.987-10.256c-1.688-0.08-2.878-0.14-3.11-0.15  c-0.231,0.012-1.418,0.07-3.104,0.15c-0.207,0.639-0.463,1.325-0.783,2.047c0.899-0.044,1.441-0.07,1.441-0.07  s1.519,0.076,3.713,0.181c0.877,2.854,2.545,6.726,7.846,10.37c5.77,3.966,14.826,5.553,21.542,3.376l5.282,6.185l1.964-2.25  L87.756,93.784z"
   id="path14" />
<path
   opacity="0.2"
   fill="#02263E"
   enable-background="new    "
   d="M28.719,94.706c-2.391,0-4.641-0.313-6.664-0.915l-1.912,2.234  c6.62,1.851,15.189,0.386,20.729-3.424c1.014-0.695,1.893-1.402,2.661-2.111C39.563,93.132,34.054,94.706,28.719,94.706z"
   id="path16" />
<polygon
   opacity="0.2"
   fill="#02263E"
   enable-background="new    "
   points="11.703,94.825 9.586,96.92 14.058,101.977   16.006,99.697 "
   id="polygon18" />
<path
   opacity="0.2"
   fill="#02263E"
   enable-background="new    "
   d="M78.218,67.637c-2.895,0.262-9.112,1.271-12.687,3.312  l5.875-0.558c2.428-0.453,4.264-0.619,4.264-0.619c1.621-0.207,3.58-0.371,5.785-0.336l10.594-1.004  c-2.813-0.748-5.753-1.129-8.759-1.129C81.645,67.303,79.984,67.412,78.218,67.637z"
   id="path20" />
<g
   id="g26"
   style="fill:#6c7988;fill-opacity:1">
	<polygon
   fill="#02263E"
   points="13.804,69.842 47.314,73.055 46.169,71.22 14.315,68.253 12.552,71.594 12.542,75.624    28.184,76.787 19.231,85.672 20.754,86.456 29.66,77.618 38.127,75.893 13.155,74.035  "
   id="polygon22"
   style="fill:#6c7988;fill-opacity:1" />
	<polygon
   fill="#02263E"
   points="97.195,75.521 97.014,70.451 95.309,68.12 63.367,71.152 63.021,72.836 96.5,69.671 96.5,73.951    70.305,75.968 80.077,77.63 89.109,86.575 90.658,85.83 81.428,76.73  "
   id="polygon24"
   style="fill:#6c7988;fill-opacity:1" />
</g>
<g
   id="g32"
   style="fill:#6c7988;fill-opacity:1">
	<path
   fill="#02263E"
   d="M47.314,78.479c-3.031,0.138-6.641,0.274-8.979,0.352c-5.923,0.191-8.494,3.345-8.582,3.456l-5.23,6.112   l1.488,0.768l4.996-5.839c0.09-0.11,2.256-2.702,7.382-2.868c2.151-0.068,5.368-0.161,8.187-0.286L47.314,78.479z"
   id="path28"
   style="fill:#6c7988;fill-opacity:1" />
	<path
   fill="#02263E"
   d="M80.1,82.311c-0.106-0.135-2.668-3.289-8.592-3.48c-2.328-0.075-5.598-0.214-8.617-0.352l0.6,1.658   c2.83,0.127,5.803,0.252,7.965,0.321c5.124,0.166,7.279,2.757,7.386,2.887l4.921,5.761l1.522-0.726L80.1,82.311z"
   id="path30"
   style="fill:#6c7988;fill-opacity:1" />
</g>
<g
   id="g40"
   style="fill:#6c7988;fill-opacity:1">
	<path
   fill="#02263E"
   d="M31.784,66.021c-1.835-0.234-3.562-0.349-5.278-0.349c-3.506,0-6.932,0.491-10.181,1.461   c-1.962,0.587-3.28,1.7-3.918,3.312c-1.112,2.815-0.067,7.008,3.107,12.46c2.767,4.749,7.667,7.473,13.446,7.473   c2.259,0,4.604-0.412,6.969-1.228c8.546-2.939,13.602-9.16,12.584-15.479C47.535,67.607,33.366,66.162,31.784,66.021z    M35.399,87.609c-2.194,0.755-4.36,1.138-6.438,1.138c-5.184,0-9.571-2.429-12.037-6.663c-2.871-4.928-3.908-8.745-3.001-11.039   c0.45-1.139,1.39-1.906,2.869-2.35c3.098-0.924,6.366-1.394,9.714-1.394c1.646,0,3.307,0.109,5.102,0.339   c4.031,0.36,14.637,2.196,15.297,6.289C47.778,79.354,43.047,84.979,35.399,87.609z"
   id="path34"
   style="fill:#6c7988;fill-opacity:1" />
	<path
   fill="#02263E"
   d="M105.673,64.457c-7.508-2.061-15.646-2.492-21.149-2.492c-8.4,0-15.438,0.979-18.42,1.889   c-5.123,1.563-10.563,2.021-11.173,2.067c-0.614-0.048-6.076-0.504-11.205-2.067c-2.982-0.91-10.021-1.889-18.43-1.889   c-5.509,0-13.651,0.434-21.159,2.492l-0.731,0.275L5.023,73h2.2c0.624,2,3.136,11.383,8.03,16.693l-4.343,4.271l5.601,6.323   l5.543-6.488c2.023,0.601,4.273,0.91,6.664,0.91c5.444,0,11.074-1.64,15.06-4.379c5.232-3.597,7.093-7.534,8.042-10.447   c1.685-0.079,2.872-0.14,3.104-0.151c0.231,0.013,1.424,0.07,3.11,0.15c0.95,2.863,2.817,6.701,7.987,10.256   c4.104,2.821,9.84,4.506,15.345,4.506c2.29,0,4.448-0.295,6.39-0.86l5.543,6.489l5.547-6.351l-4.33-4.194   C99.428,84.42,101.947,75,102.573,73h2.198l1.633-8.266L105.673,64.457z M16.492,97.786l-3.341-3.783l3.263-3.239   c0.774,0.69,1.6,1.288,2.479,1.754c0.481,0.256,0.992,0.48,1.515,0.692L16.492,97.786z M54.964,78.104l-0.04-0.002l-0.041,0.002   c-0.033,0.002-1.035,0.053-2.57,0.125c0.011-0.035,0.021-0.074,0.031-0.108l0.146-0.513c0.141-0.496,0.266-0.989,0.387-1.467   c0.618-2.44,0.999-3.511,2.055-3.511c1.055,0,1.408,0.988,2.02,3.416c0.121,0.479,0.246,0.979,0.391,1.485l0.143,0.506   c0.019,0.063,0.037,0.128,0.055,0.191C56.002,78.155,54.996,78.104,54.964,78.104z M93.313,97.781l-3.905-4.574   c0.518-0.208,1.022-0.432,1.497-0.684c0.869-0.461,1.685-1.049,2.449-1.729l3.256,3.212L93.313,97.781z M103.436,71h-2.158   l-0.143,0.746c-0.033,0.152-3.498,15.313-10.994,19.283c-2.383,1.264-5.416,1.959-8.773,1.959c-5.188,0-10.579-1.563-14.422-4.206   c-5.901-4.058-7.1-8.347-7.893-11.189l-0.145-0.514c-0.141-0.488-0.262-0.97-0.379-1.433c-0.575-2.287-1.17-4.648-3.6-4.648   c-2.436,0-3.045,2.412-3.635,4.742c-0.116,0.461-0.237,0.938-0.375,1.419l-0.146,0.522c-0.805,2.887-2.021,7.25-7.918,11.305   c-3.725,2.562-9.01,4.089-14.137,4.089c-3.462,0-6.596-0.69-9.062-1.997C12.16,87.105,8.694,71.898,8.66,71.746L8.518,71H6.361   l-1.063-5.275c7.127-1.846,14.768-2.185,19.996-2.185c8.24,0,15.084,0.97,17.953,1.845C48.842,67.091,54.686,67.982,54.93,68l0,0   h0.057c0.242,0,6-0.658,11.593-2.363c2.87-0.875,9.71-1.93,17.943-1.93c5.225,0,12.857,0.229,19.985,2.073L103.436,71z"
   id="path36"
   style="fill:#6c7988;fill-opacity:1" />
	<path
   fill="#02263E"
   d="M78.042,66.018c-1.612,0.146-15.78,1.59-16.759,7.654c-1.02,6.317,4.037,12.538,12.583,15.479   c2.364,0.814,4.71,1.228,6.969,1.228c5.778,0,10.681-2.724,13.446-7.473c3.175-5.452,4.221-9.645,3.107-12.46   c-0.639-1.61-1.957-2.725-3.918-3.312c-3.25-0.97-6.676-1.461-10.182-1.461C81.573,65.673,79.848,65.786,78.042,66.018z    M95.873,71.045c0.906,2.294-0.13,6.111-3.001,11.039c-2.466,4.234-6.854,6.663-12.037,6.663c-2.077,0-4.244-0.383-6.438-1.138   c-7.647-2.633-12.379-8.258-11.504-13.68c0.659-4.089,11.266-5.927,15.325-6.294c1.767-0.225,3.427-0.334,5.072-0.334   c3.349,0,6.616,0.47,9.714,1.394C94.484,69.139,95.422,69.906,95.873,71.045z"
   id="path38"
   style="fill:#6c7988;fill-opacity:1" />
</g>
<g
   id="g46"
   style="fill:#6c7988;fill-opacity:1">
	<g
   id="g44"
   style="fill:#6c7988;fill-opacity:1">
		<path
   fill="#02263E"
   d="M61.609,1.413h27.918c9.877,0,17.912,8.034,17.912,17.911v0.494c0,9.875-8.035,17.913-17.912,17.913    H61.609c-9.875,0-17.909-8.037-17.909-17.913v-0.494C43.7,9.447,51.735,1.413,61.609,1.413z M104.475,19.324    c0-8.242-6.703-14.948-14.945-14.948h-27.92c-8.241,0-14.944,6.706-14.944,14.948v0.494c0,8.241,6.703,14.947,14.944,14.947    h27.918c8.242,0,14.947-6.706,14.947-14.947V19.324L104.475,19.324z"
   id="path42"
   style="fill:#6c7988;fill-opacity:1" />
	</g>
</g>
<g
   id="g50"
   style="fill:#6c7988;fill-opacity:1">
	<path
   fill="#02263E"
   d="M89.281,16.978h5.188c1.432,0,2.594,1.163,2.594,2.594c0,1.43-1.162,2.593-2.594,2.593h-5.188   c-1.43,0-2.596-1.163-2.596-2.593C86.688,18.141,87.852,16.978,89.281,16.978z M94.469,18.46h-5.188   c-0.614,0-1.111,0.499-1.111,1.112c0,0.612,0.497,1.111,1.111,1.111h5.188c0.613,0,1.112-0.499,1.112-1.111   C95.581,18.958,95.082,18.46,94.469,18.46z"
   id="path48"
   style="fill:#6c7988;fill-opacity:1" />
</g>
<g
   opacity="0.2"
   id="g54">
	<path
   fill="#02263E"
   d="M43.7,19.324v0.494c0,9.875,8.035,17.913,17.909,17.913h27.918c7.164,0,13.354-4.23,16.218-10.319   c-1.345,8.781-8.312,13.282-17.466,13.282H59.034c-10.105,0-18.299-8.191-18.299-18.298v-0.463c0-6.648,2.166-9.485,6.63-13.449   C45.069,11.495,43.7,15.252,43.7,19.324z"
   id="path52" />
</g>
<path
   enable-background="new    "
   d="m 28.959156,66.904156 c 0,0 17.777,1.832 18.228,6.857 0.449,5.025 -0.45,8.217 -5.866,11.953 -5.418,3.736 -13.312,6.181 -19.56,2.241 -6.248,-3.938 -8.149,-10.662 -8.149,-10.662 0,0 -5.8409999,-12.632 15.347,-10.389 z"
   id="path56"
   inkscape:connector-curvature="0"
   style="opacity:0.2;fill:#02263e" />
<path
   opacity="0.2"
   fill="#02263E"
   enable-background="new    "
   d="M80.67,66.604c0,0-17.777,1.832-18.227,6.857  c-0.45,5.025,0.449,8.217,5.865,11.953c5.418,3.736,13.312,6.181,19.56,2.241c6.248-3.938,8.149-10.662,8.149-10.662  S101.857,64.361,80.67,66.604z"
   id="path58" />

</svg>