<?xml version="1.0" encoding="UTF-8" standalone="no"?>
<!-- Generator: Adobe Illustrator 15.0.0, SVG Export Plug-In . SVG Version: 6.00 Build 0)  -->

<svg
   xmlns:dc="http://purl.org/dc/elements/1.1/"
   xmlns:cc="http://creativecommons.org/ns#"
   xmlns:rdf="http://www.w3.org/1999/02/22-rdf-syntax-ns#"
   xmlns:svg="http://www.w3.org/2000/svg"
   xmlns="http://www.w3.org/2000/svg"
   xmlns:sodipodi="http://sodipodi.sourceforge.net/DTD/sodipodi-0.dtd"
   xmlns:inkscape="http://www.inkscape.org/namespaces/inkscape"
   version="1.1"
   id="resume"
   x="0px"
   y="0px"
   width="110px"
   height="150.75px"
   viewBox="0 0 110 150.75"
   enable-background="new 0 0 110 150.75"
   xml:space="preserve"
   sodipodi:docname="menu-resume.svg"
   inkscape:version="0.92.0 r15299"><metadata
   id="metadata139"><rdf:RDF><cc:Work
       rdf:about=""><dc:format>image/svg+xml</dc:format><dc:type
         rdf:resource="http://purl.org/dc/dcmitype/StillImage" /></cc:Work></rdf:RDF></metadata><defs
   id="defs137" /><sodipodi:namedview
   pagecolor="#ffffff"
   bordercolor="#666666"
   borderopacity="1"
   objecttolerance="10"
   gridtolerance="10"
   guidetolerance="10"
   inkscape:pageopacity="0"
   inkscape:pageshadow="2"
   inkscape:window-width="1366"
   inkscape:window-height="706"
   id="namedview135"
   showgrid="false"
   inkscape:zoom="3.3205846"
   inkscape:cx="55"
   inkscape:cy="75.375"
   inkscape:window-x="-8"
   inkscape:window-y="-8"
   inkscape:window-maximized="1"
   inkscape:current-layer="resume" />
<g
   id="g6"
   style="fill:#6c7988;fill-opacity:1">
	<g
   id="g4"
   style="fill:#6c7988;fill-opacity:1">
		<path
   fill="#3A3A3A"
   d="M110,147.25H3v-146h107V147.25z M5,145.25h103v-142H5V145.25z"
   id="path2"
   style="fill:#6c7988;fill-opacity:1" />
	</g>
</g>
<g
   id="g10"
   style="fill:#6c7988;fill-opacity:1">
	<path
   fill="#3A3A3A"
   d="M86.46,130.773c-5.569,0-10.101-4.531-10.101-10.102s4.531-10.102,10.101-10.102   s10.101,4.531,10.101,10.102S92.029,130.773,86.46,130.773z M86.46,112.535c-4.487,0-8.14,3.65-8.14,8.138   c0,4.488,3.652,8.14,8.14,8.14c4.488,0,8.138-3.651,8.138-8.14C94.598,116.186,90.947,112.535,86.46,112.535z"
   id="path8"
   style="fill:#6c7988;fill-opacity:1" />
</g>
<g
   id="g14"
   style="fill:#6c7988;fill-opacity:1">
	<path
   fill="#3A3A3A"
   d="M86.57,127.305c-3.594,0-6.52-2.925-6.52-6.52c0-3.596,2.926-6.521,6.52-6.521   c3.596,0,6.521,2.926,6.521,6.521C93.092,124.38,90.166,127.305,86.57,127.305z M86.57,116.227c-2.512,0-4.557,2.045-4.557,4.56   c0,2.513,2.045,4.557,4.557,4.557c2.515,0,4.56-2.044,4.56-4.557C91.13,118.271,89.085,116.227,86.57,116.227z"
   id="path12"
   style="fill:#6c7988;fill-opacity:1" />
</g>
<g
   id="g20"
   style="fill:#6c7988;fill-opacity:1">
	<line
   fill="none"
   x1="42"
   y1="20.25"
   x2="19"
   y2="20.25"
   id="line16"
   style="fill:#6c7988;fill-opacity:1" />
	<rect
   x="19"
   y="19.25"
   fill="#3A3A3A"
   width="23"
   height="2"
   id="rect18"
   style="fill:#6c7988;fill-opacity:1" />
</g>
<g
   id="g26"
   style="fill:#6c7988;fill-opacity:1">
	<line
   fill="none"
   x1="59"
   y1="25.25"
   x2="19"
   y2="25.25"
   id="line22"
   style="fill:#6c7988;fill-opacity:1" />
	<rect
   x="19"
   y="23.25"
   fill="#3A3A3A"
   width="40"
   height="2"
   id="rect24"
   style="fill:#6c7988;fill-opacity:1" />
</g>
<g
   id="g32"
   style="fill:#6c7988;fill-opacity:1">
	<line
   fill="none"
   x1="80"
   y1="20.25"
   x2="46"
   y2="20.25"
   id="line28"
   style="fill:#6c7988;fill-opacity:1" />
	<rect
   x="46"
   y="19.25"
   fill="#3A3A3A"
   width="34"
   height="2"
   id="rect30"
   style="fill:#6c7988;fill-opacity:1" />
</g>
<g
   id="g38"
   style="fill:#6c7988;fill-opacity:1">
	<line
   fill="none"
   x1="95"
   y1="34.25"
   x2="18"
   y2="34.25"
   id="line34"
   style="fill:#6c7988;fill-opacity:1" />
	<rect
   x="18"
   y="33.25"
   fill="#3A3A3A"
   width="77"
   height="2"
   id="rect36"
   style="fill:#6c7988;fill-opacity:1" />
</g>
<g
   id="g44"
   style="fill:#6c7988;fill-opacity:1">
	<line
   fill="none"
   x1="95"
   y1="39.25"
   x2="18"
   y2="39.25"
   id="line40"
   style="fill:#6c7988;fill-opacity:1" />
	<rect
   x="18"
   y="38.25"
   fill="#3A3A3A"
   width="77"
   height="2"
   id="rect42"
   style="fill:#6c7988;fill-opacity:1" />
</g>
<g
   id="g50"
   style="fill:#6c7988;fill-opacity:1">
	<line
   fill="none"
   x1="95"
   y1="78.25"
   x2="18"
   y2="78.25"
   id="line46"
   style="fill:#6c7988;fill-opacity:1" />
	<rect
   x="18"
   y="77.25"
   fill="#3A3A3A"
   width="77"
   height="2"
   id="rect48"
   style="fill:#6c7988;fill-opacity:1" />
</g>
<g
   id="g56"
   style="fill:#6c7988;fill-opacity:1">
	<line
   fill="none"
   x1="95"
   y1="84.25"
   x2="18"
   y2="84.25"
   id="line52"
   style="fill:#6c7988;fill-opacity:1" />
	<rect
   x="18"
   y="82.25"
   fill="#3A3A3A"
   width="77"
   height="2"
   id="rect54"
   style="fill:#6c7988;fill-opacity:1" />
</g>
<g
   id="g62"
   style="fill:#6c7988;fill-opacity:1">
	<line
   fill="none"
   x1="95"
   y1="45.25"
   x2="58"
   y2="45.25"
   id="line58"
   style="fill:#6c7988;fill-opacity:1" />
	<rect
   x="58"
   y="44.25"
   fill="#3A3A3A"
   width="37"
   height="2"
   id="rect60"
   style="fill:#6c7988;fill-opacity:1" />
</g>
<g
   id="g68"
   style="fill:#6c7988;fill-opacity:1">
	<line
   fill="none"
   x1="95"
   y1="49.25"
   x2="58"
   y2="49.25"
   id="line64"
   style="fill:#6c7988;fill-opacity:1" />
	<rect
   x="58"
   y="48.25"
   fill="#3A3A3A"
   width="37"
   height="2"
   id="rect66"
   style="fill:#6c7988;fill-opacity:1" />
</g>
<g
   id="g74"
   style="fill:#6c7988;fill-opacity:1">
	<line
   fill="none"
   x1="95"
   y1="57.25"
   x2="58"
   y2="57.25"
   id="line70"
   style="fill:#6c7988;fill-opacity:1" />
	<rect
   x="58"
   y="55.25"
   fill="#3A3A3A"
   width="37"
   height="2"
   id="rect72"
   style="fill:#6c7988;fill-opacity:1" />
</g>
<g
   id="g80"
   style="fill:#6c7988;fill-opacity:1">
	<line
   fill="none"
   x1="95"
   y1="61.25"
   x2="58"
   y2="61.25"
   id="line76"
   style="fill:#6c7988;fill-opacity:1" />
	<rect
   x="58"
   y="59.25"
   fill="#3A3A3A"
   width="37"
   height="2"
   id="rect78"
   style="fill:#6c7988;fill-opacity:1" />
</g>
<g
   id="g86"
   style="fill:#6c7988;fill-opacity:1">
	<line
   fill="none"
   x1="95"
   y1="68.25"
   x2="58"
   y2="68.25"
   id="line82"
   style="fill:#6c7988;fill-opacity:1" />
	<rect
   x="58"
   y="66.25"
   fill="#3A3A3A"
   width="37"
   height="2"
   id="rect84"
   style="fill:#6c7988;fill-opacity:1" />
</g>
<g
   id="g92"
   style="fill:#6c7988;fill-opacity:1">
	<line
   fill="none"
   x1="95"
   y1="72.25"
   x2="58"
   y2="72.25"
   id="line88"
   style="fill:#6c7988;fill-opacity:1" />
	<rect
   x="58"
   y="70.25"
   fill="#3A3A3A"
   width="37"
   height="2"
   id="rect90"
   style="fill:#6c7988;fill-opacity:1" />
</g>
<g
   id="g98"
   style="fill:#6c7988;fill-opacity:1">
	<line
   fill="none"
   x1="39"
   y1="118.25"
   x2="18"
   y2="118.25"
   id="line94"
   style="fill:#6c7988;fill-opacity:1" />
	<rect
   x="18"
   y="117.25"
   fill="#3A3A3A"
   width="21"
   height="2"
   id="rect96"
   style="fill:#6c7988;fill-opacity:1" />
</g>
<g
   id="g104"
   style="fill:#6c7988;fill-opacity:1">
	<line
   fill="none"
   x1="29"
   y1="122.25"
   x2="18"
   y2="122.25"
   id="line100"
   style="fill:#6c7988;fill-opacity:1" />
	<rect
   x="18"
   y="121.25"
   fill="#3A3A3A"
   width="11"
   height="2"
   id="rect102"
   style="fill:#6c7988;fill-opacity:1" />
</g>
<g
   id="g110"
   style="fill:#6c7988;fill-opacity:1">
	<line
   fill="none"
   x1="42"
   y1="122.25"
   x2="32"
   y2="122.25"
   id="line106"
   style="fill:#6c7988;fill-opacity:1" />
	<rect
   x="32"
   y="121.25"
   fill="#3A3A3A"
   width="10"
   height="2"
   id="rect108"
   style="fill:#6c7988;fill-opacity:1" />
</g>
<g
   id="g114">
	<path
   fill="#3A3A3A"
   d="M69.104,9.954"
   id="path112" />
</g>
<g
   opacity="0.2"
   id="g118">
	<polygon
   fill="#3A3A3A"
   points="3,147.25 3,8.25 0,8.25 0,150.25 103,150.25 103,147.25  "
   id="polygon116" />
</g>
<path
   fill="#3A3A3A"
   d="M18,44.25v29h34v-29H18z M50,46.25v8.585L37.725,66.56l-7.966-7.967L20,67.024V46.25H50z M20,71.25v-1.582  l9.659-8.345l8.034,8.033L50,57.601V71.25H20z"
   id="path120"
   style="fill:#6c7988;fill-opacity:1" />
<g
   id="g124"
   style="fill:#6c7988;fill-opacity:1">
	<path
   fill="#3A3A3A"
   d="M40,56.583c-2.298,0-4.167-1.869-4.167-4.167s1.869-4.167,4.167-4.167c2.297,0,4.167,1.869,4.167,4.167   S42.298,56.583,40,56.583z M40,50.25c-1.195,0-2.167,0.972-2.167,2.167s0.972,2.167,2.167,2.167s2.167-0.972,2.167-2.167   S41.195,50.25,40,50.25z"
   id="path122"
   style="fill:#6c7988;fill-opacity:1" />
</g>

</svg>