<?xml version="1.0" encoding="UTF-8" standalone="no"?>
<!-- Generator: Adobe Illustrator 15.0.0, SVG Export Plug-In . SVG Version: 6.00 Build 0)  -->

<svg
   xmlns:dc="http://purl.org/dc/elements/1.1/"
   xmlns:cc="http://creativecommons.org/ns#"
   xmlns:rdf="http://www.w3.org/1999/02/22-rdf-syntax-ns#"
   xmlns:svg="http://www.w3.org/2000/svg"
   xmlns="http://www.w3.org/2000/svg"
   xmlns:sodipodi="http://sodipodi.sourceforge.net/DTD/sodipodi-0.dtd"
   xmlns:inkscape="http://www.inkscape.org/namespaces/inkscape"
   version="1.1"
   id="contacts"
   x="0px"
   y="0px"
   width="128.75px"
   height="167px"
   viewBox="0 0 128.75 167"
   enable-background="new 0 0 128.75 167"
   xml:space="preserve"
   sodipodi:docname="menu-contacts.svg"
   inkscape:version="0.92.0 r15299"><metadata
   id="metadata65"><rdf:RDF><cc:Work
       rdf:about=""><dc:format>image/svg+xml</dc:format><dc:type
         rdf:resource="http://purl.org/dc/dcmitype/StillImage" /></cc:Work></rdf:RDF></metadata><defs
   id="defs63" /><sodipodi:namedview
   pagecolor="#ffffff"
   bordercolor="#666666"
   borderopacity="1"
   objecttolerance="10"
   gridtolerance="10"
   guidetolerance="10"
   inkscape:pageopacity="0"
   inkscape:pageshadow="2"
   inkscape:window-width="1366"
   inkscape:window-height="706"
   id="namedview61"
   showgrid="false"
   inkscape:zoom="2.9974738"
   inkscape:cx="64.375"
   inkscape:cy="83.5"
   inkscape:window-x="-8"
   inkscape:window-y="-8"
   inkscape:window-maximized="1"
   inkscape:current-layer="contacts" />
<g
   id="g4">
	<path
   fill="#02263E"
   d="M5.487,143.877"
   id="path2" />
</g>
<g
   id="g8">
	<path
   fill="#02263E"
   d="M5.757,143.916"
   id="path6" />
</g>
<g
   id="g12"
   style="fill:#6c7988;fill-opacity:1">
	<path
   fill="#02263E"
   d="M8.047,86.941v0.49v75.51h119V87.434v-0.492H8.047L8.047,86.941z M124.047,159.941h-113V92.68l56.5,35.521   l56.5-35.521V159.941z M67.645,125.076L11.544,89.941h112.198L67.645,125.076z"
   id="path10"
   style="fill:#6c7988;fill-opacity:1" />
</g>
<g
   id="g16"
   style="fill:#6c7988;fill-opacity:1">
	<path
   fill="#02263E"
   d="M39.047,152.941h-19v-17h19V152.941z M22.047,150.941h15v-13h-15V150.941z"
   id="path14"
   style="fill:#6c7988;fill-opacity:1" />
</g>
<g
   id="g22"
   style="fill:#6c7988;fill-opacity:1">
	<line
   fill="none"
   x1="81.047"
   y1="137.941"
   x2="45.047"
   y2="137.941"
   id="line18"
   style="fill:#6c7988;fill-opacity:1" />
	<rect
   x="45.047"
   y="135.941"
   fill="#02263E"
   width="36"
   height="2"
   id="rect20"
   style="fill:#6c7988;fill-opacity:1" />
</g>
<g
   id="g28"
   style="fill:#6c7988;fill-opacity:1">
	<line
   fill="none"
   x1="67.047"
   y1="141.941"
   x2="45.047"
   y2="141.941"
   id="line24"
   style="fill:#6c7988;fill-opacity:1" />
	<rect
   x="45.047"
   y="139.941"
   fill="#02263E"
   width="22"
   height="2"
   id="rect26"
   style="fill:#6c7988;fill-opacity:1" />
</g>
<g
   id="g34"
   style="fill:#6c7988;fill-opacity:1">
	<line
   fill="none"
   x1="70.047"
   y1="145.941"
   x2="45.047"
   y2="145.941"
   id="line30"
   style="fill:#6c7988;fill-opacity:1" />
	<rect
   x="45.047"
   y="143.941"
   fill="#02263E"
   width="25"
   height="2"
   id="rect32"
   style="fill:#6c7988;fill-opacity:1" />
</g>
<g
   opacity="0.2"
   id="g38">
	<polygon
   fill="#02263E"
   points="8.047,162.941 8.047,93.941 5.047,93.941 5.047,165.941 121.047,165.941 121.047,162.941  "
   id="polygon36" />
</g>
<g
   id="g50"
   style="fill:#6c7988;fill-opacity:1">
	<g
   opacity="0.2"
   id="g42"
   style="fill:#6c7988;fill-opacity:1">
		<polygon
   fill="#02263E"
   points="21.052,5.414 21.308,26.965 21.308,26.965 1.621,38.302 3.904,39.828 0.401,38.56 16.647,23.886     17.135,3.217   "
   id="polygon40"
   style="fill:#6c7988;fill-opacity:1" />
	</g>
	<path
   fill="#02263E"
   d="M20.464,51.946l0.035,24.532l92.569-40.22l-92.679-35.2l0.036,25.398L-0.047,38.247L20.464,51.946z    M95.152,37.479l-73.615,13.07L4.447,39.131L95.152,37.479z M22.225,52.213l84.052-14.922L22.255,73.797L22.225,52.213z    M106.074,35.485l-83.887-9.308L22.155,3.612L106.074,35.485z M92.617,35.765L5.021,37.359l16.476-9.487L92.617,35.765z"
   id="path44"
   style="fill:#6c7988;fill-opacity:1" />
	<g
   opacity="0.2"
   id="g48"
   style="fill:#6c7988;fill-opacity:1">
		<polygon
   fill="#02263E"
   points="21.103,72.526 17.155,74.791 16.422,53.427 1.733,38.774 21.454,51.676   "
   id="polygon46"
   style="fill:#6c7988;fill-opacity:1" />
	</g>
</g>

</svg>